<svg width="16" height="29" viewBox="0 0 16 29" fill="none" xmlns="http://www.w3.org/2000/svg">
<g clip-path="url(#clip0_4178_37430)">
<path d="M15.1384 17.6353C15.0131 17.5075 14.8418 17.4358 14.6629 17.4358C14.6557 17.4358 14.6485 17.4358 14.6409 17.4358H13.7735C12.6933 17.4803 11.6379 17.7759 10.6921 18.3003C9.79026 18.7997 9.01236 19.4944 8.41338 20.3316V13.4181C9.61181 13.3664 10.7452 12.8569 11.5795 11.9938C12.4239 11.1202 12.8961 9.95292 12.8961 8.73775V5.64385C12.8961 5.30322 12.7607 4.97646 12.5201 4.73582C12.2794 4.4947 11.9527 4.35978 11.6121 4.35978H10.8873V0H9.55488V4.35883H5.94094V0H4.60856V4.35883H3.91438C3.57375 4.35883 3.24699 4.49422 3.00635 4.73486C2.76523 4.9755 2.63032 5.30226 2.63032 5.64289V8.73679C2.63032 9.95148 3.10203 11.1193 3.94691 11.9929C4.78127 12.8559 5.91463 13.365 7.11305 13.4171V16.0249C6.51743 15.1365 5.7247 14.3964 4.79514 13.8644C3.81965 13.3061 2.72361 12.9932 1.60029 12.9526H0.698006C0.68748 12.9521 0.676477 12.9516 0.665952 12.9516C0.489896 12.9516 0.320059 13.0215 0.194714 13.1468C0.0698484 13.2726 0 13.442 0 13.618C0 13.6286 0 13.6396 0.000956827 13.6501V14.4868C0.0779814 16.2393 0.813303 17.8984 2.05957 19.1327C3.30584 20.3675 4.97167 21.087 6.72506 21.1478H7.08052V29H8.4129V25.6923H8.64493C10.3926 25.6238 12.0508 24.901 13.2903 23.6671C14.5299 22.4333 15.2604 20.7785 15.3375 19.0313V18.1328C15.3375 18.1257 15.3375 18.118 15.3375 18.1108C15.3375 17.9324 15.2657 17.7611 15.138 17.6358L15.1384 17.6353ZM1.56202 14.2543C2.96808 14.3223 4.29759 14.9131 5.2903 15.9111C6.28301 16.9091 6.86619 18.2424 6.92599 19.6484V19.8393L6.7619 19.8159H6.75951C5.35297 19.7561 4.01963 19.1729 3.02118 18.1802C2.02321 17.188 1.43237 15.858 1.36444 14.4524V14.2543H1.5625H1.56202ZM11.5628 8.65594V8.70378C11.5628 9.59315 11.2097 10.4457 10.5811 11.0743C9.95244 11.703 9.09943 12.0565 8.21006 12.0565H7.28289C6.40405 12.0484 5.56395 11.6958 4.94249 11.0748C4.32103 10.4533 3.96844 9.61325 3.96079 8.7344V8.71478L3.92969 8.68417V5.66059H11.5628V8.65642V8.65594ZM8.61049 24.3603H8.44352V24.1623C8.51146 22.7648 9.09895 21.443 10.0912 20.4565C11.0834 19.47 12.4086 18.8897 13.807 18.8299H13.974V18.9973C13.9137 20.4005 13.3291 21.73 12.3364 22.7227C11.3432 23.7159 10.0137 24.3001 8.61049 24.3603Z" fill="#EFEBE6"/>
</g>
<defs>
<clipPath id="clip0_4178_37430">
<rect width="16" height="29" fill="white"/>
</clipPath>
</defs>
</svg>
