<svg width="21" height="29" viewBox="0 0 21 29" fill="none" xmlns="http://www.w3.org/2000/svg">
<g clip-path="url(#clip0_4178_37429)">
<path d="M20.0065 0.782875C19.5051 0.281451 18.825 0 18.1161 0H2.6733C1.96439 0 1.2843 0.281931 0.782875 0.782875C0.281931 1.2843 0 1.96439 0 2.6733V26.3267C0 27.0361 0.281931 27.7157 0.782875 28.2171C1.2843 28.7185 1.96439 29 2.6733 29H18.1156C18.8245 29 19.5046 28.7181 20.0061 28.2171C20.5075 27.7157 20.7889 27.0361 20.7889 26.3267V2.6733C20.7889 1.96391 20.507 1.2843 20.0061 0.782875H20.0065ZM19.3999 26.3267C19.3999 26.6672 19.2645 26.9938 19.0239 27.2344C18.7832 27.4751 18.4566 27.6105 18.1161 27.6105H2.67378C2.33326 27.6105 2.00666 27.4751 1.76603 27.2344C1.52541 26.9938 1.38996 26.6672 1.38996 26.3267V2.6733C1.38996 2.33278 1.52541 2.00618 1.76603 1.76555C2.00666 1.52493 2.33326 1.38948 2.67378 1.38948H18.1161C18.4566 1.38948 18.7832 1.52493 19.0239 1.76555C19.2645 2.00618 19.3999 2.33278 19.3999 2.6733V26.3267Z" fill="#EFEBE6"/>
<path d="M15.803 14.2877C14.7113 13.6456 13.0226 13.1902 11.0894 13.1014V6.21209H9.69997V13.1014C7.76631 13.1902 6.07857 13.6456 4.98639 14.2877C3.96577 14.8876 3.43408 15.681 3.43408 16.4812C3.43408 17.2814 3.96577 18.0748 4.98639 18.6747C6.07809 19.3168 7.76679 19.7722 9.69997 19.8605V22.7879H11.0894V19.8605C13.0231 19.7717 14.7108 19.3168 15.803 18.6747C16.8237 18.0748 17.3553 17.2814 17.3553 16.4812C17.3553 15.681 16.8237 14.8876 15.803 14.2877ZM15.0989 17.4773C14.0384 18.1007 12.3233 18.4879 10.3945 18.4879C8.46562 18.4879 6.7505 18.1007 5.69001 17.4773C5.18859 17.1824 4.82309 16.875 4.82309 16.4817C4.82309 16.0883 5.18859 15.7805 5.69001 15.486C6.7505 14.8626 8.46562 14.4755 10.3945 14.4755C12.3233 14.4755 14.0384 14.8626 15.0989 15.486C15.6003 15.7809 15.9658 16.0883 15.9658 16.4817C15.9658 16.875 15.6003 17.1824 15.0989 17.4773Z" fill="#EFEBE6"/>
</g>
<defs>
<clipPath id="clip0_4178_37429">
<rect width="21" height="29" fill="white"/>
</clipPath>
</defs>
</svg>
