<svg width="23" height="30" viewBox="0 0 23 30" fill="none" xmlns="http://www.w3.org/2000/svg">
<path d="M11.1486 18.65L11.1064 18.6116L11.1468 18.6519L11.1059 18.6111L11.0461 18.5559V18.5554L11.048 18.5536L11.1417 18.6436L11.1481 18.6496L11.1486 18.65Z" fill="#EFEBE6"/>
<path d="M7.13453 14.2534L6.29332 15.2189L9.65445 18.1483C9.71567 18.2016 9.78291 18.2406 9.85432 18.2665C9.92527 18.2925 10.0004 18.306 10.0755 18.306C10.1627 18.306 10.2494 18.2883 10.3296 18.254C10.4099 18.2192 10.4831 18.1687 10.5471 18.0991V18.0987L16.0373 12.1096L15.0936 11.2438L10.0259 16.7724L7.13499 14.2539L7.13453 14.2534Z" fill="#EFEBE6"/>
<path d="M20.7502 4.98198L12.422 0.791688C12.0353 0.597384 11.6142 0.5 11.1922 0.5C10.7748 0.5 10.3579 0.595529 9.97443 0.786123H9.9749H9.97397L1.528 4.98383C0.598679 5.44525 0.0111296 6.39312 0.00927466 7.43049C0.00602853 9.7779 0 14.8442 0 18.7136V18.7173C0.000463733 19.2557 0.103412 19.7922 0.29447 20.3246C0.485992 20.8583 0.76655 21.3879 1.11945 21.905C1.82479 22.9391 2.81996 23.9218 3.93987 24.7899C5.45118 25.9622 7.16328 26.942 8.5095 27.6312C9.85572 28.3203 10.836 28.72 10.8875 28.7409L10.8898 28.7418C10.9668 28.7729 11.0475 28.7882 11.1287 28.7882C11.2098 28.7882 11.291 28.7729 11.3675 28.7418L11.3693 28.7409L11.3772 28.7376C11.3842 28.7348 11.3948 28.7302 11.4092 28.7246C11.4375 28.713 11.4802 28.6954 11.5354 28.6718C11.6462 28.6249 11.809 28.5549 12.0144 28.4631C12.4248 28.2795 13.0063 28.0091 13.6838 27.6636C15.0393 26.9731 16.782 25.9807 18.317 24.7899C19.1568 24.1388 19.9271 23.4237 20.5568 22.6701C21.187 21.9166 21.6758 21.1254 21.9624 20.325C22.1539 19.7908 22.2569 19.2534 22.2569 18.7136V7.42631C22.2569 6.39173 21.674 5.44571 20.7497 4.98151L20.7502 4.98198ZM20.9765 18.714V18.7154C20.9765 19.2232 20.8666 19.7138 20.6774 20.178C20.4882 20.6432 20.2211 21.0832 19.9016 21.502C19.263 22.3386 18.4162 23.0935 17.5319 23.7799C16.3401 24.7036 15.0389 25.491 13.906 26.1055C12.7731 26.7195 11.8085 27.16 11.2928 27.3854L11.1296 27.4563L10.9664 27.3854C10.4488 27.16 9.48334 26.7195 8.35044 26.1055C7.21708 25.491 5.9163 24.7041 4.72451 23.7799C4.06091 23.2651 3.4191 22.7114 2.87004 22.1146C2.32145 21.5173 1.86328 20.876 1.57901 20.1785C1.45612 19.8761 1.36801 19.5627 1.32071 19.2404L1.2799 19.2515V18.7043C1.2799 14.8363 1.28593 9.77744 1.28918 7.43327C1.29057 6.88096 1.60359 6.37735 2.097 6.13157H2.09746L10.5471 1.93108H10.5485C10.7512 1.83045 10.9719 1.78037 11.1927 1.78037C11.4166 1.78037 11.6406 1.8323 11.8461 1.93572H11.8465L20.1738 6.12415C20.6663 6.37179 20.976 6.87586 20.976 7.42585V18.7131L20.9765 18.714Z" fill="#EFEBE6"/>
<path d="M11.6244 29.3683V29.3688L11.6221 29.3692L11.6198 29.3702L11.6615 29.4745L11.6703 29.5H11.6708L11.6634 29.4796L11.6712 29.4995H11.6717L11.6536 29.449L11.6745 29.4981H11.675L11.6532 29.4476L11.6244 29.3683Z" fill="#EFEBE6"/>
<path d="M11.1421 18.6436L11.048 18.5536L11.0461 18.5554V18.5559H11.0457L11.1055 18.6111L11.1463 18.6519L11.106 18.6116L11.1482 18.65H11.1486L11.1486 18.6496L11.1421 18.6436Z" fill="#EFEBE6"/>
<path d="M10.6353 29.3692L10.6325 29.3683L10.6042 29.4476L10.5824 29.4981L10.6037 29.449L10.5856 29.4995L10.594 29.4796L10.5866 29.5H10.587L10.5958 29.4745L10.6371 29.3702L10.6353 29.3692Z" fill="#EFEBE6"/>
</svg>
