<svg width="21" height="29" viewBox="0 0 21 29" fill="none" xmlns="http://www.w3.org/2000/svg">
<path d="M20.4239 14.6518C20.4239 10.9323 17.5769 7.86157 13.9492 7.50544V0H12.5371V7.50544C8.90935 7.86157 6.06232 10.9323 6.06232 14.6518C6.06232 18.3713 8.90637 21.442 12.5371 21.7981V28.997L13.9492 29V21.7981C17.5769 21.442 20.4239 18.3713 20.4239 14.6518ZM7.47442 14.6483C7.47442 11.7065 9.68806 9.27218 12.5371 8.9225V20.3736C9.68806 20.0244 7.47442 17.5901 7.47442 14.6478V14.6483ZM13.9492 8.923C16.7982 9.27218 19.0118 11.7065 19.0118 14.6488C19.0118 17.5911 16.7982 20.0249 13.9492 20.3746V8.923Z" fill="#EFEBE6"/>
<path d="M5.27467 8.89374C5.41256 9.03162 5.59261 9.10206 5.77266 9.10206H5.77613C5.95617 9.10206 6.13622 9.03162 6.27411 8.89374C6.54939 8.61846 6.54939 8.17008 6.27411 7.8948L4.27573 5.89642C4.00045 5.62114 3.55207 5.62114 3.27679 5.89642C3.00152 6.1717 3.00152 6.62008 3.27679 6.89536L5.27517 8.89374H5.27467Z" fill="#EFEBE6"/>
<path d="M5.27467 20.4311L3.2763 22.4295C3.00102 22.7048 3.00102 23.1532 3.2763 23.4285C3.41419 23.5663 3.59423 23.6368 3.77428 23.6368H3.77775C3.9578 23.6368 4.13785 23.5663 4.27573 23.4285L6.27411 21.4301C6.54939 21.1548 6.54939 20.7064 6.27411 20.4311C5.99883 20.1559 5.55045 20.1559 5.27517 20.4311H5.27467Z" fill="#EFEBE6"/>
<path d="M8.82651 6.37258C8.91827 6.6796 9.2005 6.87751 9.50454 6.87751V6.87403C9.5715 6.87403 9.63846 6.86709 9.70592 6.84576C10.0764 6.73267 10.2917 6.34084 10.1791 5.96685L9.37062 3.2592C9.25754 2.88869 8.8657 2.6769 8.49172 2.78602C8.12121 2.89911 7.90594 3.29095 8.01853 3.66493L8.82701 6.37258H8.82651Z" fill="#EFEBE6"/>
<path d="M4.22266 16.9959C4.10957 16.6219 3.71426 16.4101 3.34375 16.5227L0.636101 17.3312C0.265591 17.4442 0.0503276 17.8361 0.162919 18.2101C0.254679 18.5171 0.536902 18.715 0.840948 18.715V18.7115C0.907908 18.7115 0.974868 18.7046 1.04232 18.6832L3.74998 17.8748C4.12049 17.7617 4.33575 17.3698 4.22316 16.9959H4.22266Z" fill="#EFEBE6"/>
<path d="M10.0447 22.5753C9.66673 22.4836 9.28184 22.7093 9.18661 23.0872L8.49469 25.8271C8.39946 26.2051 8.62861 26.5899 9.00656 26.6852C9.06311 26.6996 9.12312 26.7065 9.17966 26.7065C9.4976 26.7065 9.78329 26.4947 9.86464 26.1733L10.5566 23.4334C10.6518 23.0555 10.4226 22.6706 10.0447 22.5753Z" fill="#EFEBE6"/>
<path d="M0.53343 12.4877L3.27332 13.1797C3.32987 13.1935 3.38988 13.201 3.44643 13.201C3.76436 13.201 4.05006 12.9892 4.1314 12.6678C4.22663 12.2898 3.99748 11.9049 3.61953 11.8097L0.879636 11.1178C0.505654 11.0226 0.116791 11.2517 0.0215598 11.6297C-0.0736718 12.0076 0.155479 12.3925 0.53343 12.4877Z" fill="#EFEBE6"/>
</svg>
